<svg xmlns="http://www.w3.org/2000/svg" viewBox="0 0 48 64"> <g fill="#fff"> <path d="M47.6 0L33.2 6l-1.9-2.2-7.5-1.3-7.5 1.3L14.5 6 .1 0l4.8 11.8L.1 25l3.8 11.3 3.8 10 3.8 5 6.3 8.8 6.3 3.8 6.3-3.8 6.3-8.8 3.8-5 3.8-10L47.6 25l-4.8-13.2L47.6 0zm-8.7 32.5l-2.5 6.3-2.5 3.8-3.8 11.3-3.8 3.8h-5l-3.8-3.8-3.8-11.3-2.5-3.8-2.5-6.3V20l8.8-1.3 6.3 3.8 6.3-3.8 8.8 1.3v12.5z"></path> <path d="M28.9 32.5l2.5 1.3v-2.1l1.2-.4h1.3l2.5-3.8V25l-6.3 2.5zm-5.1 3.8L21.3 35l-2.5 12.5 1.3 3.8 1.2 2.5h1.3l1.2 1.2 1.3-1.2h1.3l1.2-2.5 1.3-3.8L26.4 35zm-6.2-8.8L11.3 25v2.5l2.5 3.8h1.3l1.2.4v2.1l2.5-1.3z"></path> </g> </svg>